<?xml version="1.0" encoding="UTF-8" standalone="no"?>
<!-- Created with Inkscape (http://www.inkscape.org/) -->

<svg
   width="297mm"
   height="210mm"
   viewBox="0 0 1122.5197 793.70081"
   version="1.1"
   id="svg5"
   inkscape:version="1.2.2 (b0a8486541, 2022-12-01)"
   sodipodi:docname="square.svg"
   xmlns:inkscape="http://www.inkscape.org/namespaces/inkscape"
   xmlns:sodipodi="http://sodipodi.sourceforge.net/DTD/sodipodi-0.dtd"
   xmlns="http://www.w3.org/2000/svg"
   xmlns:svg="http://www.w3.org/2000/svg">
  <sodipodi:namedview
     id="namedview7"
     pagecolor="#ffffff"
     bordercolor="#000000"
     borderopacity="0.25"
     inkscape:showpageshadow="2"
     inkscape:pageopacity="0.0"
     inkscape:pagecheckerboard="0"
     inkscape:deskcolor="#d1d1d1"
     inkscape:document-units="mm"
     showgrid="false"
     inkscape:zoom="0.47128527"
     inkscape:cx="457.26021"
     inkscape:cy="342.67992"
     inkscape:window-width="1366"
     inkscape:window-height="708"
     inkscape:window-x="0"
     inkscape:window-y="30"
     inkscape:window-maximized="1"
     inkscape:current-layer="layer1" />
  <defs
     id="defs2">
    <clipPath
       id="clipPath8606">
      <path
         d="M 1,0 H 16 V 16.9375 H 1 Z m 0,0"
         id="path8464" />
    </clipPath>
    <clipPath
       id="clipPath3167">
      <path
         d="M 1,0 H 19 V 16.9375 H 1 Z m 0,0"
         id="path4150" />
    </clipPath>
  </defs>
  <g
     inkscape:label="Layer 1"
     inkscape:groupmode="layer"
     id="layer1">
    <g
       id="g1904"
       transform="matrix(0.74154432,0,0,0.74154432,167.58575,104.48579)">
      <rect
         style="fill:none;fill-opacity:0;stroke:#000000;stroke-width:5"
         id="rect941"
         width="490.08124"
         height="235.939"
         x="356.82916"
         y="297.24908" />
      <g
         inkscape:label=""
         transform="translate(574.11045,550.11905)"
         id="g1064">
        <g
           id="surface1"
           transform="matrix(1.33333,0,0,1.33333,-1.52083,-0.0214996)">
          <g
             clip-path="url(#clipPath8606)"
             clip-rule="nonzero"
             id="g19">
            <g
               style="fill:#000000;fill-opacity:1"
               id="g17">
              <g
                 id="use15"
                 transform="translate(0,16.938)">
                <path
                   style="stroke:none"
                   d="m 9.09375,-15.015625 c 0.21875,-0.9375 0.296875,-1.1875 2.484375,-1.1875 0.65625,0 0.84375,0 0.84375,-0.46875 0,-0.25 -0.28125,-0.25 -0.375,-0.25 -0.5,0 -1.0625,0.04687 -1.5625,0.04687 H 7.15625 c -0.46875,0 -1.015625,-0.04687 -1.484375,-0.04687 -0.1875,0 -0.46875,0 -0.46875,0.46875 0,0.25 0.21875,0.25 0.59375,0.25 1.515625,0 1.515625,0.1875 1.515625,0.46875 0,0.04687 0,0.203125 -0.09375,0.5625 l -3.359375,13.34375 c -0.21875,0.859375 -0.265625,1.109375 -2,1.109375 -0.46875,0 -0.71875,0 -0.71875,0.453125 C 1.140625,0 1.28125,0 1.78125,0 H 12.890625 C 13.4375,0 13.453125,-0.03125 13.625,-0.46875 L 15.53125,-5.75 c 0.0625,-0.125 0.109375,-0.265625 0.109375,-0.34375 0,-0.15625 -0.125,-0.25 -0.25,-0.25 -0.03125,0 -0.15625,0 -0.203125,0.09375 -0.04687,0.03125 -0.04687,0.078125 -0.25,0.546875 -0.78125,2.1875 -1.90625,4.984375 -6.09375,4.984375 h -2.375 c -0.34375,0 -0.390625,0 -0.546875,-0.03125 C 5.65625,-0.765625 5.625,-0.8125 5.625,-1.015625 5.625,-1.1875 5.671875,-1.34375 5.71875,-1.5625 Z m 0,0"
                   id="path26" />
              </g>
            </g>
          </g>
        </g>
      </g>
      <g
         inkscape:label=""
         transform="translate(860.2073,397.81656)"
         id="g1112">
        <g
           id="g1110"
           transform="matrix(1.33333,0,0,1.33333,-1.58333,-0.0214996)">
          <g
             clip-path="url(#clipPath3167)"
             clip-rule="nonzero"
             id="g1108">
            <g
               style="fill:#000000;fill-opacity:1"
               id="g1106">
              <g
                 id="g1104"
                 transform="translate(0,16.938)">
                <path
                   style="stroke:none"
                   d="m 9.0625,-15.234375 c 0.234375,-0.921875 0.328125,-0.96875 1.296875,-0.96875 h 3.21875 c 2.796875,0 2.796875,2.375 2.796875,2.59375 0,2.015625 -2,4.5625 -5.265625,4.5625 H 7.53125 Z m 4.203125,6.390625 c 2.6875,-0.5 5.140625,-2.375 5.140625,-4.65625 0,-1.9375 -1.703125,-3.421875 -4.5,-3.421875 H 5.953125 c -0.46875,0 -0.703125,0 -0.703125,0.46875 0,0.25 0.234375,0.25 0.59375,0.25 1.515625,0 1.515625,0.1875 1.515625,0.46875 0,0.04687 0,0.203125 -0.09375,0.5625 l -3.34375,13.34375 C 3.6875,-0.96875 3.640625,-0.71875 1.90625,-0.71875 c -0.46875,0 -0.71875,0 -0.71875,0.453125 C 1.1875,0 1.34375,0 1.828125,0 h 8.5 c 3.796875,0 6.71875,-2.875 6.71875,-5.375 0,-2.03125 -1.78125,-3.28125 -3.78125,-3.46875 z m -3.53125,8.125 H 6.390625 C 6.046875,-0.71875 6,-0.71875 5.84375,-0.75 5.578125,-0.765625 5.546875,-0.8125 5.546875,-1.015625 5.546875,-1.1875 5.59375,-1.34375 5.65625,-1.5625 l 1.734375,-6.984375 h 4.65625 c 2.921875,0 2.921875,2.71875 2.921875,2.921875 0,2.375 -2.15625,4.90625 -5.234375,4.90625 z m 0,0"
                   id="path1102" />
              </g>
            </g>
          </g>
        </g>
      </g>
    </g>
  </g>
</svg>
