<?xml version="1.0" encoding="UTF-8" standalone="no"?>
<!-- Created with Inkscape (http://www.inkscape.org/) -->

<svg
   width="52mm"
   height="37mm"
   viewBox="0 0 196.53544 139.84253"
   version="1.1"
   id="svg5"
   inkscape:version="1.2.2 (b0a8486541, 2022-12-01)"
   sodipodi:docname="box.svg"
   xmlns:inkscape="http://www.inkscape.org/namespaces/inkscape"
   xmlns:sodipodi="http://sodipodi.sourceforge.net/DTD/sodipodi-0.dtd"
   xmlns="http://www.w3.org/2000/svg"
   xmlns:svg="http://www.w3.org/2000/svg">
  <sodipodi:namedview
     id="namedview7"
     pagecolor="#ffffff"
     bordercolor="#000000"
     borderopacity="0.25"
     inkscape:showpageshadow="2"
     inkscape:pageopacity="0.0"
     inkscape:pagecheckerboard="0"
     inkscape:deskcolor="#d1d1d1"
     inkscape:document-units="mm"
     showgrid="false"
     inkscape:zoom="2.6659921"
     inkscape:cx="62.078204"
     inkscape:cy="28.694759"
     inkscape:window-width="1366"
     inkscape:window-height="708"
     inkscape:window-x="0"
     inkscape:window-y="30"
     inkscape:window-maximized="1"
     inkscape:current-layer="g3032"
     inkscape:lockguides="false" />
  <defs
     id="defs2">
    <clipPath
       id="clipPath2570">
      <path
         d="M 1,0 H 13.972656 V 17.214844 H 1 Z m 0,0"
         id="path3097" />
    </clipPath>
    <clipPath
       id="clipPath1820">
      <path
         d="M 1,0 H 7 V 17.214844 H 1 Z m 0,0"
         id="path8986" />
    </clipPath>
    <clipPath
       id="clipPath4172">
      <path
         d="M 1,0 H 7 V 17.214844 H 1 Z m 0,0"
         id="path4609" />
    </clipPath>
  </defs>
  <g
     inkscape:label="Layer 1"
     inkscape:groupmode="layer"
     id="layer1">
    <g
       id="g3032"
       transform="matrix(0.27919903,0,0,0.27919903,-30.241217,-3.6104448)">
      <rect
         style="fill:none;fill-opacity:0;stroke:#000000;stroke-width:4.15698"
         id="rect2256"
         width="175.75616"
         height="203.88206"
         x="-9.8662481"
         y="371.84756"
         ry="0"
         transform="matrix(0.86003897,-0.51022835,0.8264604,0.56299486,0,0)" />
      <rect
         style="fill:none;fill-opacity:0;stroke:#000000;stroke-width:4.15698"
         id="rect2706"
         width="175.75616"
         height="203.88206"
         x="-91.518768"
         y="455.64594"
         ry="0"
         transform="matrix(0.86003897,-0.51022835,0.8264604,0.56299486,0,0)" />
      <path
         style="fill:none;fill-opacity:0;stroke:#000000;stroke-width:5"
         d="M 297.28308,303.55459 V 214.94985"
         id="path2771"
         sodipodi:nodetypes="cc" />
      <path
         style="fill:none;fill-opacity:0;stroke:#000000;stroke-width:5"
         d="M 467.99888,415.49329 V 327.12808"
         id="path2773" />
      <path
         style="fill:none;fill-opacity:0;stroke:#000000;stroke-width:5.02891"
         d="M 619.1268,329.24995 V 239.10099"
         id="path2775" />
      <path
         style="fill:none;fill-opacity:0;stroke:#000000;stroke-width:5"
         d="M 450.09877,214.60055 V 126.96502"
         id="path2777" />
      <g
         inkscape:label=""
         transform="translate(260.12982,246.81629)"
         id="g2864">
        <g
           id="surface1"
           transform="matrix(1.33333,0,0,1.33333,-1.8125,-0.0131658)">
          <g
             clip-path="url(#clipPath2570)"
             clip-rule="nonzero"
             id="g19">
            <g
               style="fill:#000000;fill-opacity:1"
               id="g17">
              <g
                 id="use15"
                 transform="translate(0,17.212999)">
                <path
                   style="stroke:none"
                   d="m 6.96875,-16.578125 c 0.015625,-0.09375 0.0625,-0.25 0.0625,-0.375 0,-0.25 -0.234375,-0.25 -0.296875,-0.25 -0.015625,0 -1.234375,0.109375 -1.359375,0.125 -0.421875,0.03125 -0.796875,0.07813 -1.234375,0.109375 -0.625,0.04687 -0.796875,0.0625 -0.796875,0.515625 0,0.25 0.203125,0.25 0.546875,0.25 1.21875,0 1.234375,0.21875 1.234375,0.46875 0,0.140625 -0.046875,0.34375 -0.0625,0.421875 L 1.46875,-0.96875 c -0.109375,0.375 -0.109375,0.421875 -0.109375,0.578125 0,0.546875 0.421875,0.640625 0.671875,0.640625 0.421875,0 0.75,-0.328125 0.875,-0.59375 l 1.109375,-4.484375 c 0.125,-0.546875 0.265625,-1.0625 0.390625,-1.609375 0.28125,-1.046875 0.28125,-1.078125 0.75,-1.796875 0.46875,-0.71875 1.578125,-2.203125 3.5,-2.203125 0.984375,0 1.328125,0.75 1.328125,1.734375 0,1.390625 -0.96875,4.09375 -1.515625,5.578125 C 8.25,-2.53125 8.125,-2.203125 8.125,-1.765625 c 0,1.125 0.765625,2.015625 1.96875,2.015625 2.296875,0 3.171875,-3.640625 3.171875,-3.796875 0,-0.125 -0.109375,-0.21875 -0.25,-0.21875 -0.234375,0 -0.25,0.078125 -0.375,0.5 C 12.0625,-1.28125 11.15625,-0.25 10.15625,-0.25 c -0.25,0 -0.640625,-0.015625 -0.640625,-0.8125 0,-0.640625 0.296875,-1.4375 0.390625,-1.71875 0.453125,-1.1875 1.5625,-4.109375 1.5625,-5.546875 0,-1.484375 -0.859375,-2.59375 -2.75,-2.59375 -1.40625,0 -2.640625,0.65625 -3.65625,1.953125 z m 0,0"
                   id="path26" />
              </g>
            </g>
          </g>
        </g>
      </g>
      <g
         inkscape:label=""
         transform="translate(353.92616,354.94826)"
         id="g2922">
        <g
           id="g2920"
           transform="matrix(1.33333,0,0,1.33333,-1.52083,-0.0131658)">
          <g
             clip-path="url(#clipPath1820)"
             clip-rule="nonzero"
             id="g2918">
            <g
               style="fill:#000000;fill-opacity:1"
               id="g2916">
              <g
                 id="g2914"
                 transform="translate(0,17.212999)">
                <path
                   style="stroke:none"
                   d="m 6.296875,-16.578125 c 0.015625,-0.09375 0.078125,-0.25 0.078125,-0.375 0,-0.25 -0.25,-0.25 -0.296875,-0.25 -0.03125,0 -0.921875,0.07813 -1.375,0.125 -0.421875,0.03125 -0.78125,0.07813 -1.234375,0.109375 -0.59375,0.04687 -0.765625,0.0625 -0.765625,0.515625 0,0.25 0.25,0.25 0.5,0.25 1.25,0 1.25,0.21875 1.25,0.46875 0,0.09375 0,0.140625 -0.109375,0.59375 L 1.265625,-2.84375 c -0.078125,0.265625 -0.125,0.46875 -0.125,0.859375 0,1.234375 0.921875,2.234375 2.1875,2.234375 0.8125,0 1.359375,-0.546875 1.75,-1.3125 C 5.5,-1.890625 5.84375,-3.4375 5.84375,-3.546875 c 0,-0.125 -0.09375,-0.21875 -0.25,-0.21875 -0.21875,0 -0.234375,0.125 -0.34375,0.5 C 4.8125,-1.5625 4.359375,-0.25 3.375,-0.25 c -0.75,0 -0.75,-0.796875 -0.75,-1.140625 0,-0.09375 0,-0.609375 0.171875,-1.3125 z m 0,0"
                   id="path2912" />
              </g>
            </g>
          </g>
        </g>
      </g>
      <g
         inkscape:label=""
         transform="translate(554.47514,367.83322)"
         id="g2996">
        <g
           id="g2994"
           transform="matrix(1.33333,0,0,1.33333,-1.52083,-0.0131658)">
          <g
             clip-path="url(#clipPath4172)"
             clip-rule="nonzero"
             id="g2992">
            <g
               style="fill:#000000;fill-opacity:1"
               id="g2990">
              <g
                 id="g2988"
                 transform="translate(0,17.212999)">
                <path
                   style="stroke:none"
                   d="m 6.296875,-16.578125 c 0.015625,-0.09375 0.078125,-0.25 0.078125,-0.375 0,-0.25 -0.25,-0.25 -0.296875,-0.25 -0.03125,0 -0.921875,0.07813 -1.375,0.125 -0.421875,0.03125 -0.78125,0.07813 -1.234375,0.109375 -0.59375,0.04687 -0.765625,0.0625 -0.765625,0.515625 0,0.25 0.25,0.25 0.5,0.25 1.25,0 1.25,0.21875 1.25,0.46875 0,0.09375 0,0.140625 -0.109375,0.59375 L 1.265625,-2.84375 c -0.078125,0.265625 -0.125,0.46875 -0.125,0.859375 0,1.234375 0.921875,2.234375 2.1875,2.234375 0.8125,0 1.359375,-0.546875 1.75,-1.3125 C 5.5,-1.890625 5.84375,-3.4375 5.84375,-3.546875 c 0,-0.125 -0.09375,-0.21875 -0.25,-0.21875 -0.21875,0 -0.234375,0.125 -0.34375,0.5 C 4.8125,-1.5625 4.359375,-0.25 3.375,-0.25 c -0.75,0 -0.75,-0.796875 -0.75,-1.140625 0,-0.09375 0,-0.609375 0.171875,-1.3125 z m 0,0"
                   id="path2986" />
              </g>
            </g>
          </g>
        </g>
      </g>
    </g>
  </g>
</svg>
